<svg width="190" height="29" viewBox="0 0 190 29" fill="none" xmlns="http://www.w3.org/2000/svg">
<path fill-rule="evenodd" clip-rule="evenodd" d="M10.0077 23.0404C13.5928 23.0404 15.405 20.9202 15.405 18.5201V9.48039C15.405 7.08029 13.5928 4.96009 10.0077 4.96009H5.59452V23.0404H10.0077ZM0 0H10.0077C16.7448 0 21 3.44004 21 9.64028V18.3602C21 24.56 16.7448 28 10.0077 28H0V0Z" fill="white"/>
<path fill-rule="evenodd" clip-rule="evenodd" d="M65.893 12.6804C68.3315 12.6804 69.7471 11.64 69.7471 8.80008C69.7471 6.00003 68.3315 4.96009 65.893 4.96009H60.5841V12.6804H65.893ZM55 0H66.9154C72.5391 0 75.4492 3.28016 75.4492 8.72037C75.4492 12.6804 73.6403 15.4401 70.9267 16.8003L76 26.1203V28H70.5727L64.8314 17.4801H60.5841V28H55V0Z" fill="white"/>
<path fill-rule="evenodd" clip-rule="evenodd" d="M82 0H87.8397V23.0404H101V28H82V0Z" fill="white"/>
<path fill-rule="evenodd" clip-rule="evenodd" d="M106 28H112V0H106V28Z" fill="white"/>
<path fill-rule="evenodd" clip-rule="evenodd" d="M119 0H124.296L135.215 17.4403V0H141V28H135.704L124.785 10.5602V28H119V0Z" fill="white"/>
<path fill-rule="evenodd" clip-rule="evenodd" d="M147 19.1081V10.0111C147 3.6945 151.158 0 158.263 0C164.358 0 169 3.2973 169 9.65347H163.268C163.268 6.833 161.088 5.16456 157.94 5.16456C154.428 5.16456 152.732 6.95221 152.732 9.77268V19.0685C152.732 22.0878 154.549 23.8354 157.859 23.8354C160.039 23.8354 162.178 22.763 163.268 21.0946V18.0753H158.263V13.3876H169V28.404H165.932L164.358 26.0999C162.623 28.0068 160.16 29 157.334 29C150.835 29 147 25.2659 147 19.1081Z" fill="white"/>
<path fill-rule="evenodd" clip-rule="evenodd" d="M40.4252 16.7197L37.3801 7.5999L34.2547 16.7197H40.4252ZM25 26.1206L34.695 0H40.2637L50 26.1206V28H44.3904L42.1475 21.4405H32.5713L30.2486 28H25V26.1206Z" fill="white"/>
<path fill-rule="evenodd" clip-rule="evenodd" d="M190 5.2521L188.233 2.2479L184.267 4.4958V0H180.733V4.4958L176.767 2.2479L175 5.2521L178.966 7.5L175 9.7479L176.767 12.7517L180.733 10.5038V15H184.267V10.5038L188.233 12.7517L190 9.7479L186.034 7.5L190 5.2521Z" fill="#EA028A"/>
</svg>
